#!OML:ASF H:\Terrain\Patient Classification 1\Takeo\Monday\TakeoMonday.ASF
:FULLY-SPECIFIED
:DEGREES
48
root 9.10597 17.7992 -17.6316 4.84401 -9.98569 -4.13428
lowerback 7.61302 2.45549 5.47274
upperback 1.09614 3.75033 1.32013
thorax -2.86544 1.8107 -2.06338
lowerneck -13.7465 0.733788 -3.23453
upperneck -6.03329 1.45211 2.66732
head 0.35677 0.826515 1.4514
rclavicle -1.71452e-014 3.57812e-015
rhumerus -23.2716 27.7411 -83.7217
rradius 109.467
rwrist -12.0079
rhand -37.3814 47.4028
rfingers 7.12502
rthumb -10.4425 17.6822
lclavicle -1.71452e-014 3.57812e-015
lhumerus -75.0702 -0.866762 88.4735
lradius 87.7481
lwrist 30.236
lhand -31.2773 3.11767
lfingers 7.12502
lthumb -4.55087 33.0488
rfemur 11.8639 9.3889 28.1691
rtibia 36.753
rfoot 12.7296 -10.1186
rtoes -12.6912
lfemur -31.6788 -3.55493 -18.1278
ltibia 34.14
lfoot -17.953 11.031
ltoes -23.3049
49
root 9.09626 17.7872 -17.2326 4.76236 -10.1223 -4.65017
lowerback 7.49988 2.52445 5.90443
upperback 1.16999 3.8675 1.4169
thorax -2.69511 1.87099 -2.20414
lowerneck -13.8567 0.665793 -3.14063
upperneck -6.0553 1.35262 2.719
head 0.371197 0.776618 1.44851
rclavicle -9.88954e-015 -3.57812e-015
rhumerus -25.1394 27.586 -84.3931
rradius 108.673
rwrist -12.5474
rhand -36.8926 46.5121
rfingers 7.12502
rthumb -9.97105 16.7683
lclavicle -9.88954e-015 -3.57812e-015
lhumerus -73.9485 -0.285671 88.4135
lradius 88.2197
lwrist 29.9741
lhand -31.1943 3.22502
lfingers 7.12502
lthumb -4.47077 33.1578
rfemur 11.4101 9.65211 28.572
rtibia 39.2361
rfoot 12.5799 -10.9204
rtoes -11.8565
lfemur -30.7333 -3.75588 -17.7302
ltibia 32.6595
lfoot -18.556 11.8254
ltoes -23.1557
50
root 9.09462 17.7663 -16.8378 4.42485 -10.2258 -4.91403
lowerback 7.30144 2.61353 6.37408
upperback 1.62449 3.9785 1.27044
thorax -2.06025 1.95101 -2.59701
lowerneck -14.468 0.54205 -2.82991
upperneck -6.11015 1.16086 2.79679
head 0.460733 0.680636 1.41733
rclavicle -5.71506e-015 -1.45113e-014
rhumerus -26.385 27.0786 -85.0587
rradius 107.713
rwrist -12.9655
rhand -36.812 45.6655
rfingers 7.12502
rthumb -9.89325 15.9179
lclavicle -5.71506e-015 -1.45113e-014
lhumerus -72.167 -0.116754 88.2359
lradius 88.6801
lwrist 29.7609
lhand -30.8516 2.2557
lfingers 7.12502
lthumb -4.13984 32.1952
rfemur 10.9683 9.83207 28.6804
rtibia 42.0496
rfoot 12.4382 -10.8691
rtoes -13.3678
lfemur -29.6579 -3.87017 -17.7615
ltibia 31.8526
lfoot -18.7804 13.0659
ltoes -23.6032
51
root 9.08816 17.7259 -16.464 3.88579 -10.0836 -4.95668
lowerback 7.6175 2.44372 6.41306
upperback 1.80634 3.77263 1.31332
thorax -2.06588 1.85156 -2.57012
lowerneck -14.0119 0.618412 -3.16975
upperneck -6.53999 1.30978 3.04323
head 0.241375 0.762643 1.55434
rclavicle 1.63997e-015 -1.72943e-014
rhumerus -28.34 27.1042 -85.9629
rradius 106.605
rwrist -13.1764
rhand -36.7517 46.0737
rfingers 7.12502
rthumb -9.83509 16.3234
lclavicle 1.63997e-015 -1.72943e-014
lhumerus -70.9105 0.641383 88.2174
lradius 89.1847
lwrist 29.4219
lhand -30.4627 1.18958
lfingers 7.12502
lthumb -3.76427 31.1361
rfemur 10.4187 9.85314 28.6959
rtibia 45.2299
rfoot 11.9995 -10.584
rtoes -14.4856
lfemur -28.6 -3.78319 -18.1231
ltibia 31.654
lfoot -19.1642 13.6532
ltoes -23.8221
52
root 9.06974 17.6592 -16.1102 3.49056 -9.78452 -5.04487
lowerback 8.17954 2.29087 6.42419
upperback 1.9197 3.60755 1.24145
thorax -2.26962 1.76478 -2.66336
lowerneck -13.6844 0.703526 -2.76599
upperneck -7.2587 1.36631 2.80749
head -0.0434017 0.777027 1.4
rclavicle 3.06625e-014 -1.8487e-014
rhumerus -30.2268 26.6501 -86.9933
rradius 105.374
rwrist -13.084
rhand -36.597 46.4481
rfingers 7.12502
rthumb -9.68588 16.6908
lclavicle 3.06625e-014 -1.8487e-014
lhumerus -69.3882 0.887942 88.1899
lradius 89.8211
lwrist 29.3218
lhand -30.4742 0.864525
lfingers 7.12502
lthumb -3.7754 30.8108
rfemur 9.46247 9.83186 28.8609
rtibia 48.7336
rfoot 11.3534 -10.3924
rtoes -15.2438
lfemur -27.8305 -3.40529 -18.46
ltibia 31.9187
lfoot -19.4156 13.3364
ltoes -24.9776
53
root 9.05265 17.5737 -15.7491 3.23315 -9.61172 -5.40204
lowerback 8.53979 2.22076 6.78111
upperback 2.01122 3.56661 1.15528
thorax -2.34977 1.74178 -2.96286
lowerneck -13.4389 0.703354 -2.0763
upperneck -7.80289 1.26956 2.46711
head -0.250864 0.706646 1.16167
rclavicle -5.94366e-014 -1.17283e-014
rhumerus -32.0604 25.9238 -87.9898
rradius 104.116
rwrist -12.9769
rhand -36.5379 46.3198
rfingers 7.12502
rthumb -9.62886 16.5599
lclavicle -5.94366e-014 -1.17283e-014
lhumerus -67.7092 0.878892 88.1893
lradius 90.5352
lwrist 29.3338
lhand -30.4783 0.938353
lfingers 7.12502
lthumb -3.77933 30.8846
rfemur 8.27336 9.88047 29.1929
rtibia 52.4994
rfoot 10.4655 -9.98803
rtoes -16.3298
lfemur -27.0945 -2.80029 -18.5563
ltibia 32.4782
lfoot -19.1525 12.3173
ltoes -26.1923
54
root 9.04191 17.478 -15.3798 2.97534 -9.36823 -5.43314
lowerback 8.72959 2.11103 6.81143
upperback 2.06154 3.43373 1.04293
thorax -2.40679 1.67484 -3.09223
lowerneck -13.6369 0.688715 -1.78725
upperneck -7.65359 1.21146 2.46005
head -0.169443 0.671778 1.1103
rclavicle -4.78077e-014 -1.68967e-015
rhumerus -33.9771 25.3217 -88.8911
rradius 102.706
rwrist -12.9179
rhand -37.0165 46.3657
rfingers 7.12502
rthumb -10.0906 16.6276
lclavicle -4.78077e-014 -1.68967e-015
lhumerus -66.0292 0.962851 88.2222
lradius 91.2596
lwrist 28.885
lhand -30.3227 1.18962
lfingers 7.12502
lthumb -3.62908 31.1385
rfemur 6.87975 9.70753 29.0191
rtibia 56.4648
rfoot 9.69858 -9.5457
rtoes -17.6423
lfemur -26.2821 -2.47412 -18.9816
ltibia 33.1915
lfoot -18.7929 10.8765
ltoes -26.783
55
root 9.03565 17.379 -15.0145 2.64514 -8.8214 -4.88638
lowerback 8.88477 1.85454 6.35812
upperback 2.14258 3.05428 0.782557
thorax -2.45696 1.48892 -3.0793
lowerneck -14.0537 0.731126 -1.71296
upperneck -7.2771 1.25837 2.60812
head 0.0165402 0.698581 1.15301
rclavicle -2.25186e-014 -2.88238e-015
rhumerus -35.8422 24.9058 -89.7683
rradius 101.132
rwrist -12.9275
rhand -37.606 46.5635
rfingers 7.12502
rthumb -10.6592 16.8538
lclavicle -2.25186e-014 -2.88238e-015
lhumerus -64.1707 0.935088 88.2884
lradius 92.1152
lwrist 28.217
lhand -30.2396 2.36171
lfingers 7.12502
lthumb -3.54882 32.3119
rfemur 5.20307 8.98871 28.1111
rtibia 60.5911
rfoot 9.15198 -9.12242
rtoes -19.4505
lfemur -25.4122 -2.6689 -19.9448
ltibia 33.9754
lfoot -18.5336 9.07963
ltoes -25.5697
56
root 9.03012 17.2726 -14.6529 2.34202 -8.23591 -4.19702
lowerback 8.97635 1.57356 5.74632
upperback 2.23598 2.62144 0.517412
thorax -2.46899 1.27848 -2.97187
lowerneck -13.8755 0.792954 -1.22706
upperneck -7.51594 1.26552 2.21919
head -0.086548 0.683828 0.943449
rclavicle -5.82066e-015 1.52598e-014
rhumerus -37.7018 24.533 -90.5204
rradius 99.5099
rwrist -12.9647
rhand -37.9063 46.671
rfingers 7.12502
rthumb -10.9489 16.9765
lclavicle -5.82066e-015 1.52598e-014
lhumerus -62.094 0.710662 88.5234
lradius 93.1209
lwrist 27.9728
lhand -30.9387 3.84019
lfingers 7.12502
lthumb -4.22395 33.7781
rfemur 3.2367 7.97671 26.9676
rtibia 64.8872
rfoot 8.53529 -8.46867
rtoes -23.4289
lfemur -24.562 -2.80743 -21.0701
ltibia 34.8405
lfoot -18.0994 7.24243
ltoes -21.1447
57
root 9.01409 17.1495 -14.3015 2.11639 -7.90066 -3.46155
lowerback 9.14923 1.40693 4.82415
upperback 2.26479 2.31892 0.291642
thorax -2.59175 1.12941 -2.66477
lowerneck -13.0754 0.934945 -0.413055
upperneck -8.41002 1.33547 1.50146
head -0.491466 0.684141 0.573355
rclavicle 1.12748e-014 -1.98536e-014
rhumerus -39.6001 24.1186 -91.1353
rradius 97.882
rwrist -12.9988
rhand -37.9007 46.7856
rfingers 7.12502
rthumb -10.9435 17.0908
lclavicle 1.12748e-014 -1.98536e-014
lhumerus -60.0132 0.303525 88.7343
lradius 94.1574
lwrist 27.8206
lhand -33.1223 3.32805
lfingers 7.12502
lthumb -6.33232 33.2134
rfemur 1.14053 7.28724 25.8298
rtibia 69.3193
rfoot 7.72533 -8.16151
rtoes -26.5291
lfemur -23.8877 -2.39901 -22.323
ltibia 35.9282
lfoot -17.6559 6.14527
ltoes -15.7497
58
root 8.98406 17.0232 -13.9651 1.94331 -7.48834 -2.43589
lowerback 9.48611 1.2623 3.49922
upperback 2.24657 2.00587 -0.0876543
thorax -2.85617 0.974254 -2.29236
lowerneck -12.6119 1.10225 -0.158353
upperneck -9.01703 1.54177 1.66245
head -0.755737 0.775697 0.582211
rclavicle -6.1499e-015 6.85807e-015
rhumerus -41.6095 23.479 -91.873
rradius 96.3704
rwrist -13.1101
rhand -37.6087 46.6928
rfingers 7.12502
rthumb -10.6619 16.9833
lclavicle -6.1499e-015 6.85807e-015
lhumerus -57.7419 -0.473088 88.7493
lradius 95.2802
lwrist 27.4659
lhand -34.2655 2.38977
lfingers 7.12502
lthumb -7.43586 32.2391
rfemur -1.07131 6.84582 24.4621
rtibia 73.8302
rfoot 6.45967 -8.79207
rtoes -25.0847
lfemur -23.5142 -1.97931 -23.8804
ltibia 37.4051
lfoot -17.6619 5.57227
ltoes -11.3872
59
root 8.95994 16.915 -13.6241 1.83994 -6.70547 -1.18559
lowerback 9.70329 1.0131 1.99347
upperback 2.321 1.52033 -0.461616
thorax -2.96073 0.74069 -1.78231
lowerneck -12.7488 1.10674 -0.327211
upperneck -9.37607 1.58745 2.02522
head -0.851851 0.802618 0.724781
rclavicle 9.93923e-016 -4.47266e-015
rhumerus -43.5242 22.8645 -92.4147
rradius 94.8905
rwrist -13.3062
rhand -37.6287 46.6595
rfingers 7.12502
rthumb -10.6812 16.951
lclavicle 9.93923e-016 -4.47266e-015
lhumerus -54.9171 -1.52396 88.9446
lradius 96.5154
lwrist 27.1318
lhand -32.9701 2.66293
lfingers 7.12502
lthumb -6.18536 32.5526
rfemur -3.5499 6.0296 22.7847
rtibia 78.3693
rfoot 4.72463 -9.44837
rtoes -23.437
lfemur -23.3848 -2.45151 -25.6139
ltibia 39.2556
lfoot -17.8628 5.29855
ltoes -6.90701
60
root 8.95262 16.8077 -13.2731 1.66941 -5.94699 -0.247336
lowerback 9.87621 0.742329 0.994331
upperback 2.52235 1.05435 -0.713251
thorax -2.88202 0.516617 -1.42615
lowerneck -12.5629 0.999167 -0.714433
upperneck -10.3394 1.51827 2.28094
head -1.19023 0.773177 0.8658
rclavicle -2.00276e-014 -7.55382e-015
rhumerus -45.1275 22.3194 -92.5744
rradius 93.0951
rwrist -13.1355
rhand -37.9544 47.3527
rfingers 7.12502
rthumb -10.9953 17.6607
lclavicle -2.00276e-014 -7.55382e-015
lhumerus -51.8002 -2.73816 89.1899
lradius 97.7485
lwrist 26.9172
lhand -31.8576 2.56229
lfingers 7.12502
lthumb -5.11121 32.4806
rfemur -5.94616 5.09235 21.4
rtibia 82.8419
rfoot 3.05473 -9.79485
rtoes -24.5243
lfemur -23.1938 -3.49176 -26.9974
ltibia 41.3066
lfoot -18.2517 5.70458
ltoes -3.60177
